<svg fill="none" height="256" viewBox="0 0 256 256" width="256" xmlns="http://www.w3.org/2000/svg">
<g clip-path="url(#clip0_33_608)">
<path d="M196 0H60C26.8629 0 0 26.8629 0 60V196C0 229.137 26.8629 256 60 256H196C229.137 256 256 229.137 256 196V60C256 26.8629 229.137 0 196 0Z" fill="#242938"/>
<rect fill="#F9AD00" height="55" width="55" x="40" y="41"/>
<rect fill="#F9AD00" height="55" width="55" x="100" y="41"/>
<rect fill="#F9AD00" height="55" width="55" x="160" y="41"/>
<rect fill="#F9AD00" height="55" width="55" x="160" y="101"/>
<rect fill="#4E4E4E" height="55" width="55" x="160" y="161"/>
<rect fill="#4E4E4E" height="55" width="55" x="100" y="161"/>
<rect fill="#4E4E4E" height="55" width="55" x="40" y="161"/>
<rect fill="#242938" height="55" width="55" x="40" y="101"/>
<rect fill="#4E4E4E" height="55" width="55" x="100" y="101"/>
</g>
<defs>
<clipPath id="clip0_33_608">
<rect fill="white" height="256" width="256"/>
</clipPath>
</defs>
</svg>